<svg width="33" height="32" viewBox="0 0 33 32" fill="none" xmlns="http://www.w3.org/2000/svg">
<g clip-path="url(#clip0_4492_1984)">
<rect x="0.5" width="32" height="32" rx="16" fill="#EFF5FB"/>
<g clip-path="url(#clip1_4492_1984)">
<path d="M8.78261 15.7694L12.4693 17.1638L13.8963 21.8146C13.9876 22.1125 14.347 22.2226 14.5856 22.0249L16.6406 20.3271C16.8561 20.1492 17.1629 20.1404 17.388 20.306L21.0946 23.0331C21.3498 23.2211 21.7113 23.0794 21.7753 22.7669L24.4906 9.53073C24.5604 9.18936 24.2295 8.90457 23.9087 9.03029L8.77829 14.9455C8.4049 15.0914 8.40815 15.6272 8.78261 15.7694ZM13.6663 16.4215L20.8716 11.9242C21.0011 11.8437 21.1343 12.0211 21.0231 12.1256L15.0767 17.7273C14.8677 17.9245 14.7329 18.1883 14.6947 18.4747L14.4921 19.996C14.4653 20.1991 14.1837 20.2193 14.1284 20.0227L13.3494 17.2486C13.2602 16.9322 13.3902 16.5943 13.6663 16.4215Z" fill="#333333"/>
</g>
</g>
<defs>
<clipPath id="clip0_4492_1984">
<rect width="32" height="32" fill="white" transform="translate(0.5)"/>
</clipPath>
<clipPath id="clip1_4492_1984">
<rect width="16" height="14" fill="white" transform="translate(8.5 9)"/>
</clipPath>
</defs>
</svg>
