<svg width="33" height="32" viewBox="0 0 33 32" fill="none" xmlns="http://www.w3.org/2000/svg">
<g clip-path="url(#clip0_4492_1988)">
<rect x="0.5" width="32" height="32" rx="16" fill="#EFF5FB"/>
<g clip-path="url(#clip1_4492_1988)">
<path d="M24.9702 10.7133C24.334 10.9947 23.6593 11.1795 22.9685 11.2616C23.6967 10.8261 24.2416 10.1408 24.5019 9.33327C23.8185 9.73994 23.0694 10.0249 22.2885 10.1791C21.764 9.61792 21.0688 9.24574 20.311 9.12043C19.5532 8.99511 18.7752 9.12368 18.0979 9.48615C17.4207 9.84862 16.8822 10.4247 16.5661 11.1248C16.2501 11.8249 16.1742 12.6098 16.3502 13.3574C14.9645 13.288 13.6088 12.9279 12.3713 12.3005C11.1337 11.6731 10.042 10.7925 9.16688 9.71577C8.85712 10.2478 8.69434 10.8526 8.69521 11.4683C8.69521 12.6766 9.31021 13.7441 10.2452 14.3691C9.69188 14.3517 9.15074 14.2023 8.66688 13.9333V13.9766C8.66704 14.7814 8.94552 15.5613 9.45508 16.1842C9.96465 16.807 10.6739 17.2345 11.4627 17.3941C10.9491 17.5333 10.4105 17.5538 9.88771 17.4541C10.1101 18.1468 10.5435 18.7526 11.1274 19.1867C11.7112 19.6208 12.4161 19.8614 13.1435 19.8749C12.4206 20.4427 11.5929 20.8624 10.7076 21.1101C9.82236 21.3577 8.89698 21.4285 7.98438 21.3183C9.57746 22.3428 11.432 22.8867 13.326 22.8849C19.7369 22.8849 23.2427 17.5741 23.2427 12.9683C23.2427 12.8183 23.2385 12.6666 23.2319 12.5183C23.9143 12.0251 24.5032 11.4141 24.971 10.7141L24.9702 10.7133Z" fill="#333333"/>
</g>
</g>
<defs>
<clipPath id="clip0_4492_1988">
<rect width="32" height="32" fill="white" transform="translate(0.5)"/>
</clipPath>
<clipPath id="clip1_4492_1988">
<rect width="18" height="18" fill="white" transform="translate(7.5 7)"/>
</clipPath>
</defs>
</svg>
