<svg width="33" height="32" viewBox="0 0 33 32" fill="none" xmlns="http://www.w3.org/2000/svg">
<g clip-path="url(#clip0_4492_1980)">
<rect x="0.5" width="32" height="32" rx="16" fill="#EFF5FB"/>
<g clip-path="url(#clip1_4492_1980)">
<path d="M26.3217 20.5411C26.268 20.4479 25.9355 19.6996 24.3353 18.1615C22.6602 16.551 22.8852 16.8125 24.9029 14.0277C26.1317 12.3318 26.623 11.296 26.4692 10.8533C26.323 10.4312 25.4192 10.5426 25.4192 10.5426L22.4139 10.5607C22.4139 10.5607 22.1914 10.5296 22.0252 10.6319C21.8639 10.7329 21.7601 10.9659 21.7601 10.9659C21.7601 10.9659 21.2839 12.2787 20.6488 13.3947C19.31 15.7496 18.7737 15.8739 18.5549 15.7276C18.0461 15.3871 18.1736 14.3579 18.1736 13.6277C18.1736 11.3452 18.5074 10.3937 17.5223 10.1477C17.1948 10.0661 16.9548 10.0118 16.1185 10.0027C15.0459 9.99105 14.1371 10.0066 13.6233 10.2668C13.2808 10.4403 13.017 10.8274 13.1783 10.8494C13.377 10.8766 13.8271 10.975 14.0658 11.3116C14.3746 11.7453 14.3634 12.7214 14.3634 12.7214C14.3634 12.7214 14.5409 15.4078 13.9496 15.7418C13.5433 15.971 12.987 15.5036 11.7932 13.3662C11.1819 12.2722 10.7193 11.0617 10.7193 11.0617C10.7193 11.0617 10.6306 10.8364 10.4718 10.716C10.2793 10.5698 10.0093 10.5231 10.0093 10.5231L7.15158 10.5413C7.15158 10.5413 6.7228 10.5542 6.56528 10.7471C6.42527 10.9193 6.55403 11.274 6.55403 11.274C6.55403 11.274 8.7917 16.6947 11.3244 19.4277C13.6483 21.9328 16.286 21.7684 16.286 21.7684H17.4811C17.4811 21.7684 17.8424 21.727 18.0261 21.5211C18.1961 21.3321 18.1899 20.9774 18.1899 20.9774C18.1899 20.9774 18.1661 19.3163 18.9112 19.0717C19.645 18.8309 20.5876 20.677 21.5864 21.3878C22.3414 21.925 22.9152 21.8072 22.9152 21.8072L25.5867 21.7684C25.5867 21.7684 26.9843 21.6791 26.3217 20.5411Z" fill="#333333"/>
</g>
</g>
<defs>
<clipPath id="clip0_4492_1980">
<rect width="32" height="32" fill="white" transform="translate(0.5)"/>
</clipPath>
<clipPath id="clip1_4492_1980">
<rect width="20" height="12" fill="white" transform="translate(6.5 10)"/>
</clipPath>
</defs>
</svg>
