<svg width="74" height="24" viewBox="0 0 74 24" fill="none" xmlns="http://www.w3.org/2000/svg">
<rect width="74" height="24" rx="6" fill="#F3F4F8" fill-opacity="0.7"/>
<path d="M6.625 17.63H20.625V3.63H6.625V17.63Z" fill="#333333"/>
<path d="M32.54 11.644C33.108 11.78 33.536 12.024 33.824 12.376C34.12 12.72 34.268 13.164 34.268 13.708C34.268 14.436 34 15 33.464 15.4C32.936 15.8 32.164 16 31.148 16H27.308V7.6H30.92C31.84 7.6 32.556 7.788 33.068 8.164C33.588 8.532 33.848 9.064 33.848 9.76C33.848 10.216 33.732 10.604 33.5 10.924C33.276 11.244 32.956 11.484 32.54 11.644ZM28.496 11.296H30.836C31.42 11.296 31.864 11.18 32.168 10.948C32.48 10.716 32.636 10.376 32.636 9.928C32.636 9.48 32.48 9.14 32.168 8.908C31.856 8.668 31.412 8.548 30.836 8.548H28.496V11.296ZM31.124 15.052C32.412 15.052 33.056 14.572 33.056 13.612C33.056 13.132 32.892 12.78 32.564 12.556C32.244 12.324 31.764 12.208 31.124 12.208H28.496V15.052H31.124ZM36.3308 9.64H37.4828V14.272L41.3828 9.64H42.4268V16H41.2748V11.368L37.3868 16H36.3308V9.64ZM51.3809 14.992V17.476H50.3009V16H44.9849V17.476H43.8929V14.992H44.2289C44.6369 14.968 44.9169 14.68 45.0689 14.128C45.2209 13.576 45.3249 12.796 45.3809 11.788L45.4769 9.64H50.4089V14.992H51.3809ZM46.4369 11.872C46.4049 12.672 46.3369 13.336 46.2329 13.864C46.1369 14.384 45.9569 14.76 45.6929 14.992H49.2569V10.648H46.4969L46.4369 11.872ZM58.8796 12.856C58.8796 12.944 58.8716 13.06 58.8556 13.204H53.6956C53.7676 13.764 54.0116 14.216 54.4276 14.56C54.8516 14.896 55.3756 15.064 55.9996 15.064C56.7596 15.064 57.3716 14.808 57.8356 14.296L58.4716 15.04C58.1836 15.376 57.8236 15.632 57.3916 15.808C56.9676 15.984 56.4916 16.072 55.9636 16.072C55.2916 16.072 54.6956 15.936 54.1756 15.664C53.6556 15.384 53.2516 14.996 52.9636 14.5C52.6836 14.004 52.5436 13.444 52.5436 12.82C52.5436 12.204 52.6796 11.648 52.9516 11.152C53.2316 10.656 53.6116 10.272 54.0916 10C54.5796 9.72 55.1276 9.58 55.7356 9.58C56.3436 9.58 56.8836 9.72 57.3556 10C57.8356 10.272 58.2076 10.656 58.4716 11.152C58.7436 11.648 58.8796 12.216 58.8796 12.856ZM55.7356 10.552C55.1836 10.552 54.7196 10.72 54.3436 11.056C53.9756 11.392 53.7596 11.832 53.6956 12.376H57.7756C57.7116 11.84 57.4916 11.404 57.1156 11.068C56.7476 10.724 56.2876 10.552 55.7356 10.552ZM63.6408 16.072C63.0088 16.072 62.4408 15.932 61.9368 15.652C61.4328 15.372 61.0368 14.988 60.7488 14.5C60.4688 14.004 60.3288 13.444 60.3288 12.82C60.3288 12.196 60.4688 11.64 60.7488 11.152C61.0368 10.656 61.4328 10.272 61.9368 10C62.4408 9.72 63.0088 9.58 63.6408 9.58C64.2728 9.58 64.8368 9.72 65.3328 10C65.8368 10.272 66.2288 10.656 66.5088 11.152C66.7968 11.64 66.9408 12.196 66.9408 12.82C66.9408 13.444 66.7968 14.004 66.5088 14.5C66.2288 14.988 65.8368 15.372 65.3328 15.652C64.8368 15.932 64.2728 16.072 63.6408 16.072ZM63.6408 15.064C64.0488 15.064 64.4128 14.972 64.7328 14.788C65.0608 14.596 65.3168 14.332 65.5008 13.996C65.6848 13.652 65.7768 13.26 65.7768 12.82C65.7768 12.38 65.6848 11.992 65.5008 11.656C65.3168 11.312 65.0608 11.048 64.7328 10.864C64.4128 10.68 64.0488 10.588 63.6408 10.588C63.2328 10.588 62.8648 10.68 62.5368 10.864C62.2168 11.048 61.9608 11.312 61.7688 11.656C61.5848 11.992 61.4928 12.38 61.4928 12.82C61.4928 13.26 61.5848 13.652 61.7688 13.996C61.9608 14.332 62.2168 14.596 62.5368 14.788C62.8648 14.972 63.2328 15.064 63.6408 15.064Z" fill="#333333"/>
</svg>
