<svg width="36" height="36" viewBox="0 0 36 36" fill="none" xmlns="http://www.w3.org/2000/svg">
<circle cx="18" cy="18" r="16" stroke="#0063A8" stroke-width="2.76396" stroke-dasharray="0.98 8.39"/>
<mask id="path-2-inside-1_4492_588" fill="white">
<path fill-rule="evenodd" clip-rule="evenodd" d="M17.0139 6.81229L10.1081 19.9671C9.75858 20.633 10.2415 21.4319 10.9935 21.4319H14.6765L14.4965 27.9451C14.438 30.0632 17.2817 30.8061 18.2666 28.9299L25.1724 15.7751C25.5219 15.1092 25.039 14.3103 24.287 14.3103H20.604L20.784 7.79715C20.8425 5.67898 17.9988 4.93612 17.0139 6.81229Z"/>
</mask>
<path fill-rule="evenodd" clip-rule="evenodd" d="M17.0139 6.81229L10.1081 19.9671C9.75858 20.633 10.2415 21.4319 10.9935 21.4319H14.6765L14.4965 27.9451C14.438 30.0632 17.2817 30.8061 18.2666 28.9299L25.1724 15.7751C25.5219 15.1092 25.039 14.3103 24.287 14.3103H20.604L20.784 7.79715C20.8425 5.67898 17.9988 4.93612 17.0139 6.81229Z" fill="#FFDF4E"/>
<path d="M10.1081 19.9671L11.337 20.6122L10.1081 19.9671ZM17.0139 6.81229L18.2427 7.45738V7.45738L17.0139 6.81229ZM14.6765 21.4319L16.0638 21.4702L16.1032 20.044H14.6765V21.4319ZM14.4965 27.9451L13.1092 27.9067L14.4965 27.9451ZM18.2666 28.9299L17.0378 28.2848L18.2666 28.9299ZM25.1724 15.7751L26.4012 16.4202L25.1724 15.7751ZM20.604 14.3103L19.2167 14.272L19.1773 15.6982H20.604V14.3103ZM20.784 7.79715L22.1713 7.83548L20.784 7.79715ZM11.337 20.6122L18.2427 7.45738L15.7851 6.1672L8.87931 19.322L11.337 20.6122ZM10.9935 20.044C11.2852 20.044 11.4725 20.3539 11.337 20.6122L8.87931 19.322C8.04462 20.912 9.19777 22.8198 10.9935 22.8198V20.044ZM14.6765 20.044H10.9935V22.8198H14.6765V20.044ZM15.8839 27.9834L16.0638 21.4702L13.2892 21.3936L13.1092 27.9067L15.8839 27.9834ZM17.0378 28.2848C16.7363 28.8591 15.8659 28.6317 15.8839 27.9834L13.1092 27.9067C13.0101 31.4947 17.827 32.7531 19.4954 29.575L17.0378 28.2848ZM23.9435 15.13L17.0378 28.2848L19.4954 29.575L26.4012 16.4202L23.9435 15.13ZM24.287 15.6982C23.9953 15.6982 23.808 15.3883 23.9435 15.13L26.4012 16.4202C27.2359 14.8302 26.0827 12.9225 24.287 12.9225V15.6982ZM20.604 15.6982H24.287V12.9225H20.604V15.6982ZM19.3966 7.75882L19.2167 14.272L21.9913 14.3486L22.1713 7.83548L19.3966 7.75882ZM18.2427 7.45738C18.5442 6.88315 19.4146 7.11049 19.3966 7.75882L22.1713 7.83548C22.2704 4.24747 17.4535 2.9891 15.7851 6.1672L18.2427 7.45738Z" fill="#0063A8" mask="url(#path-2-inside-1_4492_588)"/>
</svg>
